<?xml version="1.0" encoding="utf-8"?>
<!-- Generator: Adobe Illustrator 21.0.0, SVG Export Plug-In . SVG Version: 6.00 Build 0)  -->
<svg version="1.1" id="Layer_1" xmlns="http://www.w3.org/2000/svg" xmlns:xlink="http://www.w3.org/1999/xlink" x="0px" y="0px"
	 viewBox="0 0 130.3 141.7" style="enable-background:new 0 0 130.3 141.7;" xml:space="preserve">
<style type="text/css">
	.st0{fill:none;stroke:#FF6D00;stroke-width:5;stroke-miterlimit:10;}
	.st1{fill:#FF6D00;}
</style>
<g id="bingtanghulu">
	<g>
		<ellipse transform="matrix(0.9698 -0.244 0.244 0.9698 -5.585 3.1193)" class="st0" cx="9.8" cy="24.1" rx="7.4" ry="5.9"/>
		<ellipse transform="matrix(0.9698 -0.244 0.244 0.9698 -9.7977 4.9057)" class="st0" cx="14.9" cy="42" rx="12.4" ry="10.3"/>
		<ellipse transform="matrix(0.9698 -0.244 0.244 0.9698 -15.0481 6.9172)" class="st0" cx="20.4" cy="64.2" rx="15.5" ry="10.4"/>
		<ellipse transform="matrix(0.9698 -0.244 0.244 0.9698 -20.3597 9.2357)" class="st0" cx="27.1" cy="86.8" rx="18.8" ry="13.1"/>
		<g>
			<path class="st1" d="M30.8,97.4c1.5,1.6,2.7,3.2,3.8,4.9c0.4,1.9,0.9,3.7,1.4,5.5l2.8,11.1l2.8,11.1l1.4,5.5
				c-0.3,2-0.5,4.1-1,6.1c-1.4-1.6-2.6-3.3-3.8-4.9l-1.4-5.5L34,120.1L31.2,109c-0.5-1.8-0.9-3.7-1.4-5.5
				C29.9,101.6,30.2,99.5,30.8,97.4z"/>
		</g>
		<g>
			<path class="st1" d="M3.8,0C5,0.6,5.9,1.3,6.9,1.9C7,2.8,7.3,3.6,7.5,4.5l1.3,5.1l1.3,5.1l0.6,2.5c-0.5,1-1,2.1-1.8,3.2
				c-1.2-0.6-2.1-1.3-3.1-1.9L5.2,16l-1.3-5.1L2.6,5.7C2.4,4.9,2.2,4,2,3.2C2.5,2.1,3,1.1,3.8,0z"/>
		</g>
		<ellipse transform="matrix(0.7368 -0.6761 0.6761 0.7368 -3.8042 88.6736)" class="st0" cx="112" cy="49.2" rx="5.9" ry="7.4"/>
		
			<ellipse transform="matrix(0.7368 -0.6761 0.6761 0.7368 -15.993 83.0716)" class="st0" cx="98.7" cy="62.1" rx="10.3" ry="12.4"/>
		
			<ellipse transform="matrix(0.7368 -0.6761 0.6761 0.7368 -30.9156 75.7241)" class="st0" cx="81.8" cy="77.6" rx="10.4" ry="15.5"/>
		<ellipse transform="matrix(0.7368 -0.6761 0.6761 0.7368 -46.5905 68.7177)" class="st0" cx="65" cy="94.2" rx="13.1" ry="18.8"/>
		<g>
			<path class="st1" d="M57.5,102.5c-0.7,2-1.6,3.9-2.5,5.7c-1.4,1.3-2.8,2.6-4.2,3.8l-8.4,7.7l-8.4,7.7l-4.2,3.9
				c-1.9,0.7-3.8,1.5-5.9,2c0.7-2,1.6-3.9,2.5-5.7l4.2-3.9L39,116l8.4-7.7c1.4-1.3,2.8-2.6,4.2-3.9C53.4,103.8,55.4,103,57.5,102.5z
				"/>
		</g>
		<g>
			<path class="st1" d="M130.3,32.4c0.1,1.4-0.1,2.5-0.2,3.6c-0.7,0.6-1.3,1.2-2,1.8l-3.9,3.6l-3.9,3.6l-1.9,1.8
				c-1.2,0-2.3,0.1-3.6-0.1c0-1.3,0.1-2.5,0.2-3.6l1.9-1.8l3.9-3.6l3.9-3.6c0.6-0.6,1.3-1.2,1.9-1.8C127.8,32.3,129,32.2,130.3,32.4
				z"/>
		</g>
	</g>
</g>
</svg>
