<?xml version="1.0" encoding="utf-8"?>
<!-- Generator: Adobe Illustrator 21.0.0, SVG Export Plug-In . SVG Version: 6.00 Build 0)  -->
<svg version="1.1" id="Layer_1" xmlns="http://www.w3.org/2000/svg" xmlns:xlink="http://www.w3.org/1999/xlink" x="0px" y="0px"
	 viewBox="0 0 147.7 117" style="enable-background:new 0 0 147.7 117;" xml:space="preserve">
<style type="text/css">
	.st0{fill:none;stroke:#FF6D00;stroke-width:5;stroke-miterlimit:10;}
	.st1{fill:#FF6D00;}
</style>
<g id="Layer_12">
	<g>
		<path class="st0" d="M48.4,34.2c0,0-3.2,15,14.7,19.5c0,0,5.4,4.2,4.2,8.3c-1.3,4.2,1.6-10.6,7.4-11.5c5.8-1,5.4-20.5-19.2-29.1
			S21.2,44.8,19.9,50.3c-1.3,5.4-7.7,30.1,44.5,37.8c0,0,28.8,0.6,41.9-9.9"/>
		<path class="st0" d="M68.6,15.7c0,0,57-8,53.1,17.9"/>
		<polyline class="st0" points="107.5,16.8 118.2,8.6 118.2,0 		"/>
		<line class="st0" x1="118.2" y1="8.6" x2="126.8" y2="10.2"/>
		<path class="st0" d="M141.9,28.2l-2.6,9l-16.8,9c0,0-14.1-5.4-27.3,0S91.3,67,91.3,67s5.4,5.8,15,1.9c9.6-3.8,14.9-11.2,15.5-17
			s0.5-4.4,0.5-4.4"/>
		<line class="st0" x1="139.3" y1="37.1" x2="146.5" y2="41.3"/>
		<path class="st0" d="M7.3,65c0,0-28.2,42.2,51.7,48.8c79.8,6.6,95.2-34.7,80.3-47.7"/>
		<circle class="st1" cx="63.5" cy="40.4" r="3.3"/>
	</g>
</g>
</svg>
