<?xml version="1.0" encoding="utf-8"?>
<!-- Generator: Adobe Illustrator 21.0.0, SVG Export Plug-In . SVG Version: 6.00 Build 0)  -->
<svg version="1.1" id="Layer_1" xmlns="http://www.w3.org/2000/svg" xmlns:xlink="http://www.w3.org/1999/xlink" x="0px" y="0px"
	 viewBox="0 0 129.1 113.4" style="enable-background:new 0 0 129.1 113.4;" xml:space="preserve">
<style type="text/css">
	.st0{fill:none;stroke:#FF6D00;stroke-width:5;stroke-miterlimit:10;}
	.st1{fill:#FF6D00;}
</style>
<g id="bum">
	<g>
		<path class="st0" d="M30.9,29.5c0,0-44.7,17.6-21.9,56.6c24.2,41.4,94.9,21.8,108.5,6.6c6.6-7.4,24.2-38.6-19.5-63.2"/>
		<path class="st1" d="M94,15.4c-1.2-5.6-6.6-6-11.2-4.9c-0.9-3.2-3.2-5.8-6.8-6.4c-3.1-0.5-4.9,0.4-6.5,1.9
			c-0.2-1.6-0.8-3.1-2.4-4.4c-2.4-1.9-5.7-2-8.4-0.9c-2,0.8-4.6,2.9-6.4,5.3c-3.8-2-8.8-1.9-12.5,0.7c-6.6,4.6,2.4,15.7,5.9,19.7
			c2.1,2.5,5.6-1.1,3.5-3.5c-2.2-2.6-5.3-6.4-6-9.8c-0.8-3.8,4.3-4.2,7.3-2.2c0.1,1.6,1,3,3.1,4c1.9,0.9,4.3-0.6,3.7-2.8
			c-0.3-1-0.7-1.9-1.2-2.7c1.1-1.7,5.2-4.5,6-4.4c3.9,0.4,2.2,5.5,2.2,7.6c0,2.3,2.7,3.1,4.3,1.8c1.1-1,1.7-2.2,2.7-3.3
			c3.1-3.4,6.9-1.8,6.9,2.7c0,2.1,2.1,2.9,3.8,2.2c2.7-1.9,4.7-1,6.1,2.7c-1.1,0.9-2.3,1.8-3.5,2.5c-2.2,1.5-4.4,2.9-6.6,4.4
			c-2.7,1.8-0.2,6.1,2.5,4.3C85.1,26.8,95.5,22.4,94,15.4z"/>
		<path class="st1" d="M49.4,31.7c-4.7,4.1-9.1,8.6-13.3,13.3c-2.1,2.4,1.4,6,3.5,3.5c4.1-4.7,8.5-9.2,13.3-13.3
			C55.4,33.1,51.8,29.6,49.4,31.7z"/>
		<path class="st1" d="M64.9,49c-2.6-2.7-3.9-6-3.8-9.7c0.1-3.2-4.9-3.2-5,0c-0.1,5,1.8,9.7,5.3,13.2C63.6,54.8,67.1,51.3,64.9,49z"
			/>
		<path class="st1" d="M82.1,45c-3.7-3.6-7.2-7.4-10.4-11.4c-2-2.5-5.6,1.1-3.5,3.5c3.3,4,6.7,7.8,10.4,11.4
			C80.9,50.8,84.4,47.3,82.1,45z"/>
		<path class="st1" d="M94.6,40c-2.5-3-5.7-5.4-9.3-6.9c-1.3-0.5-2.7-0.4-3.4,0.9c-0.6,1-0.3,2.9,0.9,3.4c3.3,1.4,6,3.4,8.3,6.1
			C93.1,46,96.6,42.4,94.6,40z"/>
	</g>
</g>
</svg>
