<?xml version="1.0" encoding="utf-8"?>
<!-- Generator: Adobe Illustrator 21.0.0, SVG Export Plug-In . SVG Version: 6.00 Build 0)  -->
<svg version="1.1" id="Layer_1" xmlns="http://www.w3.org/2000/svg" xmlns:xlink="http://www.w3.org/1999/xlink" x="0px" y="0px"
	 viewBox="0 0 163.4 87.4" style="enable-background:new 0 0 163.4 87.4;" xml:space="preserve">
<style type="text/css">
	.st0{fill:none;stroke:#FF6D00;stroke-width:5;stroke-miterlimit:10;}
</style>
<g id="cake">
	<g>
		<path class="st0" d="M90.7,19.5"/>
		<path class="st0" d="M94.6,25.4c0,0,2.6,10.1,6.5,9.5c3.9-0.7,6.5,5.2,6.5,7.2s8.2,7.5,9.5,5.9s8.5,1,9.8,4.9
			c1.3,3.9,10.1,5.9,11.8,2.9c1.6-2.9,4.9-0.1,5.6,1.4c0.7,1.5,12.1-1.7,10.5-3.7s2.9-4.6,4.9-4.6s1-6.7,0-7.4s-4.3-5-2.3-6
			s-8.8-4.9-3.6-7.2s-4.9-5.2-6.9-4.9c-2,0.3-6.9-3.9-6.2-6.2s-6.5-6.5-8.5-5.6c-2,1-12.1-1.6-12.1-4.6s-11.5-6.2-11.8-3.6
			s-7.2-0.9-8.8-1s-9.2,4.2-8.8,5.2c0.3,1-0.3,6.2-3.9,6.5c-1.8,0.2-2,0.9-1.2,1.9s2.7,2.2,5.2,3.4C95.6,21.8,98.2,21.8,94.6,25.4z"
			/>
		<path class="st0" d="M86.4,19.5c-4.6,2.6-5.6,5.6-3.9,8.2s0.5,5.2-0.7,8.2c-1.2,2.9,0,7.2,2.3,7.2s4.6,3.9,5.3,6.5
			c0.7,2.6,2,5.6,4.6,3.6s11.1,6.2,9.8,9.2s11.1,4.3,12.4,2.6s1.3,6.2,4.9,7.2s10.8,2.6,11.5,0s3.6-0.3,6.5,0s5.2-0.7,6.2-3.9
			c1-3.3,1.3-1,3.9-1s2-0.7,2.3-3.9c0.3-3.3-0.3-1.6,2.3-3.3c2.6-1.6,7.5-5.9,4.3-6.2c-3.3-0.3,1.6-4.9,1.6-4.9"/>
		<path class="st0" d="M67.4,31.6c0,0-8.8-3.1-12.4-1.5c-3.6,1.5-6.5-4.7-16.7-3s-13.1,7.2-14.7,4.6S7.8,34.6,9.5,38.2
			c1.6,3.6,3,13.1-0.1,13.7s2.4,5.9,6,5.7s9.2,5.1,9.2,6.7c0,1.6,9.2,2.6,11.1,0c2-2.6,5.6,3.3,5.9,4.6s13.1-0.3,12.8-4.9
			s5.9,1.3,7.5,2s2.3,2,5.6-3.3s7.2-0.7,10.1-2s3.7-5.9,3.7-5.9"/>
		<path class="st0" d="M88,64.7c0,0-2.7,2.8-3,4.7s-4.7,0.2-3.8,6.8c0.9,6.5-9.6-2.5-9.6-2.5s-4.6,6.4-2.9,9.1s-15.1-2.3-14.4-4.3
			c0.7-2-4.3,1.2-3.9,5c0.3,3.8-12.8-0.1-12.4-5.7c0,0-9.5,7.9-13.1,3.9c-3.6-3.9-1.3-6.9-1.3-6.9s-18.7,2.6-8.8-6.9
			c0,0-10.8-1.3-9.5-8.8S0,48.5,3.6,48.1s7.5-3.2,7.5-3.2"/>
	</g>
</g>
</svg>
