<?xml version="1.0" encoding="utf-8"?>
<!-- Generator: Adobe Illustrator 21.0.0, SVG Export Plug-In . SVG Version: 6.00 Build 0)  -->
<svg version="1.1" id="Layer_1" xmlns="http://www.w3.org/2000/svg" xmlns:xlink="http://www.w3.org/1999/xlink" x="0px" y="0px"
	 viewBox="0 0 123.5 94.6" style="enable-background:new 0 0 123.5 94.6;" xml:space="preserve">
<style type="text/css">
	.st0{fill:none;stroke:#FF6D00;stroke-width:5;stroke-miterlimit:10;}
</style>
<g id="dumpling">
	<g>
		<path class="st0" d="M25.7,47.9c0,0-30.9,21.2-1.8,37s80.3,1,87-4.4c5.2-4.2,15.6-25.3-11.8-37.3"/>
		<path class="st0" d="M13.1,47.9c0,0-10.3,0.6-10.6-7.1s14.4-15.3,17.9-6.2c0,0-7.9-17.1,6.2-22.1s17.3,2.6,19.1,6.5
			c0,0,0.2-14.9,9.4-16.2c7.1-1,12.1-0.3,15.6,3.5s2.4,17.3,2.4,17.3S76.6,5.2,86.6,5.9c6.6,0.4,10.8,0.9,13.5,7.4c2,4.9,0,15,0,15
			s6.2-9.4,14.4-5.9s6.5,12.6,5.9,15s-4.1,7.6-4.1,7.6"/>
		<path class="st0" d="M39,42.2c0,0,20.6-15.6,49.1-2.6"/>
	</g>
</g>
</svg>
