<?xml version="1.0" encoding="utf-8"?>
<!-- Generator: Adobe Illustrator 21.0.0, SVG Export Plug-In . SVG Version: 6.00 Build 0)  -->
<svg version="1.1" id="Layer_1" xmlns="http://www.w3.org/2000/svg" xmlns:xlink="http://www.w3.org/1999/xlink" x="0px" y="0px"
	 viewBox="0 0 119.9 116.6" style="enable-background:new 0 0 119.9 116.6;" xml:space="preserve">
<style type="text/css">
	.st0{fill:none;stroke:#FF6D00;stroke-width:5;stroke-miterlimit:10;}
	.st1{fill:#FF6D00;}
</style>
<g id="hotpot">
	<g>
		<polygon class="st0" points="50.6,2.5 68.7,2.5 84.8,54.5 33.6,54.5 		"/>
		<path class="st0" d="M2.5,53.2c0,0,55.5,33.4,114.9,0v19.1c0,0-1.3,12.2-12.7,20.9"/>
		<path class="st0" d="M117.4,53.2c0,0-55.5,33.4-114.9,0v19.1c0,0,1.3,12.2,12.7,20.9"/>
		<g>
			<g>
				<path class="st1" d="M53.2,77.9c6.9-0.2,5.3,9.2,2.9,12.9c-1.7,2.6-4.4,4.1-5.8,6.9c-2.3,4.6-1.6,10,0.1,14.5
					c0.9,2.4,4.8,1.4,3.9-1.1c-2.1-5.7-1.9-10.7,2.4-15.2c2.6-2.7,4.4-5.5,5.1-9.3c1.2-6.1-1.6-13-8.6-12.9
					C50.6,73.9,50.6,77.9,53.2,77.9L53.2,77.9z"/>
			</g>
		</g>
		<g>
			<g>
				<path class="st1" d="M51.4,77.8c5-0.1,12.6,2.6,15,7.4c1.7,3.3,1.3,10.8-1.3,13.4c-2,2.1-3.7,2.6-4.1,5.9
					c-0.4,3.2,0.9,6.4,3.2,8.7c1.8,1.9,4.6-1,2.8-2.8c-3-3.1-2.3-5.9,0.5-8.7c1.1-1.1,1.9-1.8,2.5-3.3c1.4-3.5,1.6-8.6,1-12.3
					c-1.4-8.2-12.3-12.5-19.6-12.4C48.9,73.8,48.8,77.8,51.4,77.8L51.4,77.8z"/>
			</g>
		</g>
		<g>
			<g>
				<path class="st1" d="M23.3,85.2c-6.3,3.9-4,11.5,1.8,14.6c4.5,2.3,9.6,1.8,14.4,2.9c6.6,1.5,9.2,6.1,11.7,11.9
					c1,2.4,4.5,0.3,3.5-2c-2.3-5.3-4.9-10.3-10.5-12.7c-2.9-1.2-6.1-1.4-9.2-1.8c-2.1-0.2-4.3-0.4-6.2-1.1c-3-1.1-8.3-5.3-3.3-8.3
					C27.6,87.3,25.6,83.8,23.3,85.2L23.3,85.2z"/>
			</g>
		</g>
		<g>
			<g>
				<path class="st1" d="M96.2,90.9c6.8,5.5-5.3,8.2-9.1,8.2c-3.6,0-7.3-0.5-10.8,0.4c-5.9,1.5-9.3,6.4-12.3,11.3
					c-1.3,2.2,2.1,4.2,3.5,2c3.4-5.6,6.7-9.6,13.7-9.9c4.8-0.2,9.8,0.8,14.5-1c5.8-2.2,9-9.4,3.5-13.9C97,86.5,94.2,89.3,96.2,90.9
					L96.2,90.9z"/>
			</g>
		</g>
		<g>
			<g>
				<path class="st1" d="M21,87.5c-3.7,3.1-4.4,8.9-4.1,13.5c0.5,6.5,4.8,9.5,8,14.7c1.3,2.2,4.8,0.2,3.5-2c-2.1-3.4-5.8-6.1-7-10.1
					c-1.2-4-0.9-10.4,2.4-13.2C25.8,88.6,22.9,85.8,21,87.5L21,87.5z"/>
			</g>
		</g>
		<g>
			<g>
				<path class="st1" d="M97.3,92.2c0.4,3.5,1.3,7.3,1.2,10.9c-0.2,5.9-4,8.2-9.4,9.4c-2.5,0.5-1.4,4.4,1.1,3.9
					c4.7-1,9.4-3.1,11.4-7.7c2.1-4.9,0.3-11.4-0.3-16.5C101,89.7,97,89.6,97.3,92.2L97.3,92.2z"/>
			</g>
		</g>
	</g>
</g>
</svg>
