<?xml version="1.0" encoding="utf-8"?>
<!-- Generator: Adobe Illustrator 21.0.0, SVG Export Plug-In . SVG Version: 6.00 Build 0)  -->
<svg version="1.1" id="Layer_1" xmlns="http://www.w3.org/2000/svg" xmlns:xlink="http://www.w3.org/1999/xlink" x="0px" y="0px"
	 viewBox="0 0 141.2 147.7" style="enable-background:new 0 0 141.2 147.7;" xml:space="preserve">
<style type="text/css">
	.st0{fill:none;stroke:#FF6D00;stroke-width:5;stroke-miterlimit:10;}
	.st1{fill:#FF6D00;}
</style>
<g id="noodle">
	<g>
		<path class="st0" d="M2.5,80.2h120.2c0,0,7.6,40-32.7,51.1H36.5C36.5,131.2,1.6,127.4,2.5,80.2z"/>
		<path class="st0" d="M36.5,131.2c0,0-1.9,14,7,14s39.6,0,39.6,0s10.1,0,7-14"/>
		<g>
			<g>
				<path class="st1" d="M33,42.1c-4.5,0.4-8.5,3.3-9.2,8c-0.3,2,0.2,4.1,1,5.9c0.7,1.5,1.7,2.8,2.5,4.2c1,1.5,1.7,3.2,2,5
					c-0.9,3.2-2.7,4.3-5.3,3.4c-2.5-0.7-3.5,3.1-1.1,3.9c4.1,1.3,8.9-0.7,10.1-5.1c0.7-2.6-0.2-5.4-1.4-7.7
					c-0.8-1.4-1.8-2.7-2.6-4.2c-2.1-3.9-1.2-8.8,4-9.3C35.5,45.9,35.5,41.9,33,42.1L33,42.1z"/>
			</g>
		</g>
		<g>
			<g>
				<path class="st1" d="M44.4,40.9C39,41.2,34.2,45,33.7,50.6c-0.3,3.1,1,5.9,2.5,8.5c1.2,2.2,3,4.2,3.7,6.6
					c1.3,4.5-1.9,8.1-6.4,6.6c-2.5-0.8-3.5,3.1-1.1,3.9c5.4,1.7,11.5-1.7,11.8-7.7c0.2-3.5-1.6-6.6-3.3-9.4
					c-1.5-2.4-3.1-4.6-3.1-7.5c0-3.7,2.8-6.5,6.5-6.8C46.9,44.7,46.9,40.7,44.4,40.9L44.4,40.9z"/>
			</g>
		</g>
		<g>
			<g>
				<path class="st1" d="M57.8,38.9c-6.8,0.4-12.6,5.9-12.3,12.9c0.2,3.9,2.5,7.3,4.5,10.5c1.7,2.7,4,6.4,3.1,9.8
					c-1,3.6-5,4.9-8.3,3.8c-2.4-0.8-3.5,3-1.1,3.9c6.1,2.1,13.2-2,13.5-8.7c0.2-4.2-2.1-8-4.3-11.4c-1.8-3-4.2-6.3-3.4-10
					c0.8-3.8,4.4-6.5,8.1-6.7C60.3,42.8,60.4,38.8,57.8,38.9L57.8,38.9z"/>
			</g>
		</g>
		<g>
			<path class="st1" d="M23.4,50.3c3.7-3,7.5-5.8,11.3-8.5c4.2-2,8.3-4.2,12.4-6.3L72,22.9l24.8-12.6L109.2,4
				c4.5-1.4,9-2.9,13.6-4.1c-3.7,3-7.5,5.7-11.3,8.5l-12.4,6.3L74.2,27.4L49.4,39.9c-4.1,2.1-8.3,4.2-12.4,6.3
				C32.5,47.7,28,49.1,23.4,50.3z"/>
		</g>
		<g>
			<path class="st1" d="M27.3,52.7c4.5-2.4,9-4.4,13.5-6.5c4.8-1.3,9.5-2.7,14.2-4l28.5-8.1L112,26l14.2-4.1c5-0.6,9.9-1.3,14.9-1.7
				c-4.5,2.3-9,4.4-13.6,6.5l-14.2,4.1l-28.5,8.1L56.4,47c-4.7,1.4-9.5,2.7-14.2,4.1C37.3,51.7,32.3,52.4,27.3,52.7z"/>
		</g>
	</g>
</g>
</svg>
