<?xml version="1.0" encoding="utf-8"?>
<!-- Generator: Adobe Illustrator 21.0.0, SVG Export Plug-In . SVG Version: 6.00 Build 0)  -->
<svg version="1.1" id="Layer_1" xmlns="http://www.w3.org/2000/svg" xmlns:xlink="http://www.w3.org/1999/xlink" x="0px" y="0px"
	 viewBox="0 0 140 133.2" style="enable-background:new 0 0 140 133.2;" xml:space="preserve">
<style type="text/css">
	.st0{fill:none;stroke:#FF6D00;stroke-width:5;stroke-miterlimit:10;}
	.st1{fill:#FF6D00;}
</style>
<g id="some_bum">
	<g>
		<path class="st0" d="M67.3,65.6c0,0-5.3-25.8,23.1-25.8s24,25.8,24,25.8s-6.2,6.2-15.1,7.1S76.2,76.3,67.3,65.6z"/>
		<path class="st0" d="M59.2,66.4c-8.9,0.9-23.1,3.6-32-7.1c0,0-5.3-25.8,23.1-25.8c10.7,0,16.7,3.6,20.1,8.2"/>
		<path class="st0" d="M38.9,31c0,0-7.4-8.2,1.9-20.4c11.1-12,34.5-7.5,40.4-6.2c0,0,14.1,4.2,17.6,18.5c1.1,8.6,0.5,5.8,0,12"/>
		<path class="st0" d="M16.9,50.4c0,0-17.7,8.7-13.8,17.9C6.2,75.5,22.4,83,70.4,86.8c0,0,99.9-0.6,54.9-36.4"/>
		<g>
			<g>
				<path class="st1" d="M2.1,112.2c17.5,15.5,42.5,20.1,65.2,21c13.3,0.5,26.7-0.8,39.7-3.7c10.8-2.4,21.9-5.2,30.5-12.5
					c2.9-2.5-1.3-6.7-4.2-4.2c-8.1,6.9-19.5,9.2-29.7,11.4c-11.9,2.5-24.1,3.5-36.3,3.1c-20.9-0.8-44.8-4.9-61-19.2
					C3.5,105.4-0.8,109.6,2.1,112.2L2.1,112.2z"/>
			</g>
		</g>
		<g>
			<g>
				<path class="st1" d="M134,68.6c0,15.3,0,30.7,0,46c0,3.9,6,3.9,6,0c0-15.3,0-30.7,0-46C140,64.7,134,64.7,134,68.6L134,68.6z"/>
			</g>
		</g>
		<g>
			<g>
				<path class="st1" d="M0,68.6c0,13.6,0,27.1,0,40.7c0,3.9,6,3.9,6,0c0-13.6,0-27.1,0-40.7C6,64.7,0,64.7,0,68.6L0,68.6z"/>
			</g>
		</g>
	</g>
</g>
</svg>
