<?xml version="1.0" encoding="utf-8"?>
<!-- Generator: Adobe Illustrator 21.0.0, SVG Export Plug-In . SVG Version: 6.00 Build 0)  -->
<svg version="1.1" id="Layer_1" xmlns="http://www.w3.org/2000/svg" xmlns:xlink="http://www.w3.org/1999/xlink" x="0px" y="0px"
	 viewBox="0 0 158.8 98.2" style="enable-background:new 0 0 158.8 98.2;" xml:space="preserve">
<style type="text/css">
	.st0{fill:none;stroke:#FF6D00;stroke-width:5;stroke-miterlimit:10;}
	.st1{fill:#FF6D00;}
</style>
<g id="zongzi">
	<g>
		<path class="st0" d="M77,6L51.5,44.1c0,0-5.7,12.6,7.9,16.1h54.1c0,0,11.3-4.4,7.9-15.4L95.9,6C95.9,6,87.7-1.9,77,6z"/>
		<circle class="st1" cx="71.8" cy="45.3" r="7.6"/>
		<circle class="st1" cx="92.5" cy="29.8" r="3.7"/>
		<path class="st0" d="M39.8,63.1c0,0-31.2,3.4-36.5-5s16.8,30.2,44.6,30.2c20.4-0.9,40.9-6.6,45.7-7.6c13.7-1.6,33.9-2.6,47.5,4.2
			s15,8.9,14.4,10.8c-0.5,1.8,7.6-22.6-17.3-33.9"/>
	</g>
</g>
</svg>
